<mxfile host="app.diagrams.net" modified="2023-11-02T01:20:51.927Z" agent="Mozilla/5.0 (Windows NT 10.0; Win64; x64; rv:109.0) Gecko/20100101 Firefox/119.0" etag="UZEYXwBjFwVpG-aVgrqP" version="22.0.8" type="github">
  <diagram name="Page-1" id="ox_xpiER131zjLyTj_U5">
    <mxGraphModel dx="1114" dy="555" grid="1" gridSize="10" guides="1" tooltips="1" connect="1" arrows="1" fold="1" page="1" pageScale="1" pageWidth="827" pageHeight="1169" math="0" shadow="0">
      <root>
        <mxCell id="0" />
        <mxCell id="1" parent="0" />
        <mxCell id="TyFk9mQkdt7fxy6A1QTa-1" style="edgeStyle=orthogonalEdgeStyle;rounded=0;orthogonalLoop=1;jettySize=auto;html=1;exitX=0.5;exitY=1;exitDx=0;exitDy=0;entryX=0.5;entryY=0;entryDx=0;entryDy=0;" edge="1" parent="1" source="TyFk9mQkdt7fxy6A1QTa-2" target="TyFk9mQkdt7fxy6A1QTa-4">
          <mxGeometry relative="1" as="geometry" />
        </mxCell>
        <mxCell id="TyFk9mQkdt7fxy6A1QTa-2" value="start" style="rounded=1;whiteSpace=wrap;html=1;fontSize=12;glass=0;strokeWidth=1;shadow=0;" vertex="1" parent="1">
          <mxGeometry x="160" y="90" width="120" height="40" as="geometry" />
        </mxCell>
        <mxCell id="TyFk9mQkdt7fxy6A1QTa-3" style="edgeStyle=orthogonalEdgeStyle;rounded=0;orthogonalLoop=1;jettySize=auto;html=1;exitX=0.5;exitY=1;exitDx=0;exitDy=0;entryX=0.5;entryY=0;entryDx=0;entryDy=0;" edge="1" parent="1" source="TyFk9mQkdt7fxy6A1QTa-4" target="TyFk9mQkdt7fxy6A1QTa-7">
          <mxGeometry relative="1" as="geometry" />
        </mxCell>
        <mxCell id="TyFk9mQkdt7fxy6A1QTa-4" value="&lt;div&gt;Lo&lt;/div&gt;&lt;div&gt;phi.3,14&lt;/div&gt;&lt;div&gt;r&lt;br&gt;&lt;/div&gt;" style="shape=parallelogram;html=1;strokeWidth=2;perimeter=parallelogramPerimeter;whiteSpace=wrap;rounded=1;arcSize=12;size=0.23;" vertex="1" parent="1">
          <mxGeometry x="147.5" y="180" width="145" height="60" as="geometry" />
        </mxCell>
        <mxCell id="TyFk9mQkdt7fxy6A1QTa-5" value="end" style="rounded=1;whiteSpace=wrap;html=1;strokeWidth=2;arcSize=12;" vertex="1" parent="1">
          <mxGeometry x="160" y="530" width="120" height="40" as="geometry" />
        </mxCell>
        <mxCell id="TyFk9mQkdt7fxy6A1QTa-6" style="edgeStyle=orthogonalEdgeStyle;rounded=0;orthogonalLoop=1;jettySize=auto;html=1;exitX=0.5;exitY=1;exitDx=0;exitDy=0;" edge="1" parent="1" source="TyFk9mQkdt7fxy6A1QTa-7" target="TyFk9mQkdt7fxy6A1QTa-9">
          <mxGeometry relative="1" as="geometry" />
        </mxCell>
        <mxCell id="TyFk9mQkdt7fxy6A1QTa-7" value="Lo=phi*r*r" style="rounded=0;whiteSpace=wrap;html=1;" vertex="1" parent="1">
          <mxGeometry x="150" y="300" width="140" height="70" as="geometry" />
        </mxCell>
        <mxCell id="TyFk9mQkdt7fxy6A1QTa-8" style="edgeStyle=orthogonalEdgeStyle;rounded=0;orthogonalLoop=1;jettySize=auto;html=1;exitX=0.5;exitY=1;exitDx=0;exitDy=0;entryX=0.5;entryY=0;entryDx=0;entryDy=0;" edge="1" parent="1" source="TyFk9mQkdt7fxy6A1QTa-9" target="TyFk9mQkdt7fxy6A1QTa-5">
          <mxGeometry relative="1" as="geometry" />
        </mxCell>
        <mxCell id="TyFk9mQkdt7fxy6A1QTa-9" value="Lo" style="shape=parallelogram;html=1;strokeWidth=2;perimeter=parallelogramPerimeter;whiteSpace=wrap;rounded=1;arcSize=12;size=0.23;" vertex="1" parent="1">
          <mxGeometry x="150" y="430" width="140" height="60" as="geometry" />
        </mxCell>
      </root>
    </mxGraphModel>
  </diagram>
</mxfile>
